<svg width="75" height="22" viewBox="0 0 75 22" fill="none" xmlns="http://www.w3.org/2000/svg">
<path d="M0.552 9.6C0.552 8.16 0.704 6.904 1.008 5.832C1.328 4.744 1.76 3.84 2.304 3.12C2.864 2.384 3.52 1.832 4.272 1.464C5.04 1.096 5.872 0.912 6.768 0.912C8.688 0.912 10.208 1.64 11.328 3.096C12.448 4.536 13.008 6.704 13.008 9.6C13.008 11.04 12.848 12.304 12.528 13.392C12.224 14.464 11.784 15.368 11.208 16.104C10.648 16.824 9.976 17.368 9.192 17.736C8.408 18.104 7.552 18.288 6.624 18.288C5.648 18.288 4.784 18.096 4.032 17.712C3.28 17.312 2.64 16.744 2.112 16.008C1.6 15.256 1.208 14.344 0.936 13.272C0.68 12.2 0.552 10.976 0.552 9.6ZM4.152 9.6C4.152 10.752 4.184 11.784 4.248 12.696C4.328 13.608 4.464 14.384 4.656 15.024C4.848 15.648 5.096 16.128 5.4 16.464C5.72 16.8 6.12 16.968 6.6 16.968C7.16 16.968 7.616 16.832 7.968 16.56C8.336 16.288 8.624 15.856 8.832 15.264C9.056 14.672 9.208 13.912 9.288 12.984C9.368 12.056 9.408 10.928 9.408 9.6C9.408 8.448 9.376 7.416 9.312 6.504C9.248 5.592 9.12 4.824 8.928 4.2C8.752 3.56 8.488 3.072 8.136 2.736C7.8 2.4 7.344 2.232 6.768 2.232C6.256 2.232 5.832 2.368 5.496 2.64C5.16 2.912 4.888 3.344 4.68 3.936C4.488 4.528 4.352 5.296 4.272 6.24C4.192 7.168 4.152 8.288 4.152 9.6ZM24.7543 18H16.4503V16.968C16.8503 16.792 17.2503 16.64 17.6503 16.512C18.0663 16.368 18.4823 16.248 18.8983 16.152V5.136L18.9943 3.72C18.5463 3.864 18.0823 3.96 17.6023 4.008C17.1223 4.056 16.6263 4.072 16.1143 4.056L15.9943 3.168C16.8423 2.944 17.7623 2.64 18.7543 2.256C19.7623 1.872 20.6903 1.424 21.5383 0.912H22.3543V16.152C22.7543 16.248 23.1543 16.368 23.5543 16.512C23.9543 16.64 24.3543 16.792 24.7543 16.968V18Z" fill="#FF6E11"/>
<path d="M41.2414 0.816L42.6814 1.416L33.9214 21.192L32.5054 20.568L41.2414 0.816ZM48.8801 9.6C48.8801 8.16 49.0321 6.904 49.3361 5.832C49.6561 4.744 50.0881 3.84 50.6321 3.12C51.1921 2.384 51.8481 1.832 52.6001 1.464C53.3681 1.096 54.2001 0.912 55.0961 0.912C57.0161 0.912 58.5361 1.64 59.6561 3.096C60.7761 4.536 61.3361 6.704 61.3361 9.6C61.3361 11.04 61.1761 12.304 60.8561 13.392C60.5521 14.464 60.1121 15.368 59.5361 16.104C58.9761 16.824 58.3041 17.368 57.5201 17.736C56.7361 18.104 55.8801 18.288 54.9521 18.288C53.9761 18.288 53.1121 18.096 52.3601 17.712C51.6081 17.312 50.9681 16.744 50.4401 16.008C49.9281 15.256 49.5361 14.344 49.2641 13.272C49.0081 12.2 48.8801 10.976 48.8801 9.6ZM52.4801 9.6C52.4801 10.752 52.5121 11.784 52.5761 12.696C52.6561 13.608 52.7921 14.384 52.9841 15.024C53.1761 15.648 53.4241 16.128 53.7281 16.464C54.0481 16.8 54.4481 16.968 54.9281 16.968C55.4881 16.968 55.9441 16.832 56.2961 16.56C56.6641 16.288 56.9521 15.856 57.1601 15.264C57.3841 14.672 57.5361 13.912 57.6161 12.984C57.6961 12.056 57.7361 10.928 57.7361 9.6C57.7361 8.448 57.7041 7.416 57.6401 6.504C57.5761 5.592 57.4481 4.824 57.2561 4.2C57.0801 3.56 56.8161 3.072 56.4641 2.736C56.1281 2.4 55.6721 2.232 55.0961 2.232C54.5841 2.232 54.1601 2.368 53.8241 2.64C53.4881 2.912 53.2161 3.344 53.0081 3.936C52.8161 4.528 52.6801 5.296 52.6001 6.24C52.5201 7.168 52.4801 8.288 52.4801 9.6ZM74.7624 12.84C74.7624 13.672 74.6024 14.424 74.2824 15.096C73.9784 15.768 73.5624 16.344 73.0344 16.824C72.5064 17.288 71.8824 17.648 71.1624 17.904C70.4584 18.16 69.7064 18.288 68.9064 18.288C67.9144 18.288 67.0344 18.136 66.2664 17.832C65.5144 17.512 64.8824 17.072 64.3704 16.512C63.8584 15.952 63.4664 15.288 63.1944 14.52C62.9384 13.752 62.8104 12.912 62.8104 12C62.8104 10.496 63.0744 9.12 63.6024 7.872C64.1304 6.624 64.8424 5.52 65.7384 4.56C66.6344 3.6 67.6744 2.8 68.8584 2.16C70.0584 1.52 71.3304 1.056 72.6744 0.767999L73.0344 1.8C72.1704 2.072 71.3704 2.44 70.6344 2.904C69.8984 3.368 69.2424 3.936 68.6664 4.608C68.1064 5.264 67.6424 6.016 67.2744 6.864C66.9224 7.696 66.6984 8.616 66.6024 9.624C66.7304 9.416 66.8904 9.216 67.0824 9.024C67.2904 8.816 67.5384 8.632 67.8264 8.472C68.1144 8.296 68.4424 8.16 68.8104 8.064C69.1944 7.952 69.6264 7.896 70.1064 7.896C70.7624 7.896 71.3704 8 71.9304 8.208C72.5064 8.416 73.0024 8.728 73.4184 9.144C73.8344 9.56 74.1624 10.08 74.4024 10.704C74.6424 11.312 74.7624 12.024 74.7624 12.84ZM71.1624 13.128C71.1624 10.76 70.3704 9.576 68.7864 9.576C68.2424 9.576 67.7784 9.72 67.3944 10.008C67.0104 10.28 66.7304 10.6 66.5544 10.968C66.5064 11.192 66.4664 11.456 66.4344 11.76C66.4184 12.048 66.4104 12.328 66.4104 12.6C66.4104 13.144 66.4584 13.672 66.5544 14.184C66.6504 14.68 66.8024 15.128 67.0104 15.528C67.2184 15.912 67.4824 16.224 67.8024 16.464C68.1384 16.704 68.5384 16.824 69.0024 16.824C69.4024 16.824 69.7384 16.728 70.0104 16.536C70.2824 16.328 70.4984 16.056 70.6584 15.72C70.8344 15.384 70.9624 14.992 71.0424 14.544C71.1224 14.096 71.1624 13.624 71.1624 13.128Z" fill="#C2C3C5"/>
</svg>
