<svg width="296" height="345" viewBox="0 0 296 345" fill="none" xmlns="http://www.w3.org/2000/svg">
<g clip-path="url(#clip0_402_263)">
<path d="M306.166 161.757C304.375 166.223 301.854 170.489 299.026 174.382C272.151 211.374 257.564 143.764 232.052 148.156C210.021 151.949 200.129 192.944 168.343 197.28C137.546 201.482 131.145 167.013 107.651 160.203C90.3292 155.181 82.7678 167.829 69.25 174.752C60.7032 179.129 52.9598 179.498 43.9087 181.781" stroke="#FF7A24" stroke-width="3" stroke-miterlimit="1.5" stroke-linecap="round" stroke-linejoin="round"/>
<path d="M53.9897 167.099C52.3038 171.488 48.7735 175.169 45.4446 178.326C43.4751 180.195 41.4694 182.154 39.0434 183.418C46.8797 183.623 53.7424 184.924 60.5019 189.078" stroke="#FF7A24" stroke-width="2.5" stroke-miterlimit="1.5" stroke-linecap="round" stroke-linejoin="round"/>
</g>
<defs>
<clipPath id="clip0_402_263">
<rect width="250" height="250" fill="white" transform="translate(213.359 344.823) rotate(-148.275)"/>
</clipPath>
</defs>
</svg>
