<svg width="90" height="15" viewBox="0 0 90 15" fill="none" xmlns="http://www.w3.org/2000/svg">
<path d="M7.16561 0L8.77438 4.95131H13.9805L9.76866 8.01139L11.3774 12.9627L7.16561 9.90262L2.95377 12.9627L4.56255 8.01139L0.35071 4.95131H5.55683L7.16561 0Z" fill="#FF7A24"/>
<path d="M26.0826 0L27.6914 4.95131H32.8975L28.6857 8.01139L30.2944 12.9627L26.0826 9.90262L21.8708 12.9627L23.4795 8.01139L19.2677 4.95131H24.4738L26.0826 0Z" fill="#FF7A24"/>
<path d="M45.0001 0L46.6089 4.95131H51.815L47.6031 8.01139L49.2119 12.9627L45.0001 9.90262L40.7882 12.9627L42.397 8.01139L38.1852 4.95131H43.3913L45.0001 0Z" fill="#FF7A24"/>
<path d="M63.9171 0L65.5258 4.95131H70.732L66.5201 8.01139L68.1289 12.9627L63.9171 9.90262L59.7052 12.9627L61.314 8.01139L57.1022 4.95131H62.3083L63.9171 0Z" fill="#FF7A24"/>
<path d="M82.8346 0L84.4433 4.95131H89.6494L85.4376 8.01139L87.0464 12.9627L82.8346 9.90262L78.6227 12.9627L80.2315 8.01139L76.0197 4.95131H81.2258L82.8346 0Z" fill="#C8C8CB"/>
</svg>
