<svg width="170" height="70" viewBox="0 0 170 70" fill="none" xmlns="http://www.w3.org/2000/svg">
<rect x="100" width="70" height="70" fill="#FF7500"/>
<path d="M148.061 36.0607C148.646 35.4749 148.646 34.5251 148.061 33.9393L138.515 24.3934C137.929 23.8076 136.979 23.8076 136.393 24.3934C135.808 24.9792 135.808 25.9289 136.393 26.5147L144.879 35L136.393 43.4853C135.808 44.0711 135.808 45.0208 136.393 45.6066C136.979 46.1924 137.929 46.1924 138.515 45.6066L148.061 36.0607ZM122 36.5L147 36.5L147 33.5L122 33.5L122 36.5Z" fill="white"/>
<rect x="69.5" y="69.5" width="69" height="69" transform="rotate(-180 69.5 69.5)" stroke="#FF7500"/>
<path d="M21.9393 33.9393C21.3536 34.5251 21.3536 35.4749 21.9393 36.0607L31.4853 45.6066C32.0711 46.1924 33.0208 46.1924 33.6066 45.6066C34.1924 45.0208 34.1924 44.0711 33.6066 43.4853L25.1213 35L33.6066 26.5147C34.1924 25.9289 34.1924 24.9792 33.6066 24.3934C33.0208 23.8076 32.0711 23.8076 31.4853 24.3934L21.9393 33.9393ZM48 33.5L23 33.5L23 36.5L48 36.5L48 33.5Z" fill="#FF7500"/>
</svg>
