<svg width="42" height="38" viewBox="0 0 42 38" fill="none" xmlns="http://www.w3.org/2000/svg">
<path d="M37.5007 37.5C38.5947 37.5 39.6439 37.0654 40.4175 36.2918C41.1911 35.5182 41.6257 34.469 41.6257 33.375V23.3017C41.6257 22.2077 41.1911 21.1585 40.4175 20.3849C39.6439 19.6113 38.5947 19.1768 37.5007 19.1768H31.7752C31.7752 17.7289 31.8618 16.2769 32.031 14.829C32.2867 13.2945 32.7157 11.9291 33.3097 10.737C33.9078 9.54075 34.6751 8.60437 35.6156 7.91962C36.552 7.15237 37.7441 6.76875 39.1961 6.76875V0.375C36.8077 0.375 34.7205 0.8865 32.9261 1.9095C31.1473 2.92213 29.618 4.32036 28.4505 6.0015C27.2787 7.85492 26.415 9.886 25.893 12.0157C25.367 14.366 25.1096 16.7684 25.1257 19.1768V33.375C25.1257 34.469 25.5603 35.5182 26.3339 36.2918C27.1075 37.0654 28.1567 37.5 29.2507 37.5H37.5007ZM12.7507 37.5C13.8447 37.5 14.8939 37.0654 15.6675 36.2918C16.4411 35.5182 16.8757 34.469 16.8757 33.375V23.3017C16.8757 22.2077 16.4411 21.1585 15.6675 20.3849C14.8939 19.6113 13.8447 19.1768 12.7507 19.1768H7.02521C7.02521 17.7289 7.11184 16.2769 7.28096 14.829C7.53671 13.2945 7.96571 11.9291 8.55972 10.737C9.15784 9.54075 9.92509 8.60437 10.8656 7.91962C11.802 7.15237 12.9941 6.76875 14.4461 6.76875V0.375C12.0577 0.375 9.97046 0.8865 8.17609 1.9095C6.39733 2.92213 4.86801 4.32036 3.70046 6.0015C2.52866 7.85492 1.66496 9.886 1.14297 12.0157C0.61697 14.366 0.35957 16.7684 0.375715 19.1768V33.375C0.375715 34.469 0.810311 35.5182 1.5839 36.2918C2.35749 37.0654 3.4067 37.5 4.50071 37.5H12.7507Z" fill="#FF7500"/>
</svg>
